<?xml version="1.0"?>
<svg xmlns="http://www.w3.org/2000/svg" xmlns:xlink="http://www.w3.org/1999/xlink" version="1.1" id="Capa_1" x="0px" y="0px" viewBox="0 0 76 76" style="enable-background:new 0 0 76 76;" xml:space="preserve" width="512px" height="512px" class=""><g><g>
	<g>
		<path d="M0,0v11.844c35.432,0,64.155,28.725,64.155,64.156H76C76,34.026,41.973,0,0,0z M0,23.688v11.844    c22.349,0,40.467,18.118,40.467,40.468h11.844C52.311,47.109,28.891,23.688,0,23.688z M11.349,53.299    C5.082,53.299,0,58.382,0,64.649C0,70.919,5.082,76,11.349,76c6.27,0,11.353-5.081,11.353-11.351    C22.701,58.382,17.619,53.299,11.349,53.299z" data-original="#030104" class="active-path" data-old_color="#95989a" fill="#95989a"/>
	</g>
</g></g> </svg>
