<svg id="Layer_1" data-name="Layer 1" xmlns="http://www.w3.org/2000/svg" xmlns:xlink="http://www.w3.org/1999/xlink" viewBox="0 0 970 647"><defs><style>.cls-1{fill:url(#linear-gradient);}.cls-2{fill:#fff;}.cls-3{opacity:0.1;}</style><linearGradient id="linear-gradient" y1="323.5" x2="970" y2="323.5" gradientUnits="userSpaceOnUse"><stop offset="0" stop-color="#06b9df"/><stop offset="0.34" stop-color="#0b88bc"/><stop offset="0.65" stop-color="#0e82b8"/><stop offset="0.96" stop-color="#01415c"/></linearGradient></defs><title>elpiTicketPro</title><rect class="cls-1" width="970" height="647"/><path class="cls-2" d="M90.37,156.69c4.43,0,8,3.06,8,6.83s-3.59,6.82-8,6.82V178c4.43,0,8,3.05,8,6.82s-3.59,6.82-8,6.82v7.69c4.43,0,8,3,8,6.82s-3.59,6.82-8,6.82v7.69c4.43,0,8,3.05,8,6.82s-3.59,6.82-8,6.82V242c4.43,0,8,3,8,6.82s-3.59,6.82-8,6.82v7.69c4.43,0,8,3,8,6.82s-3.59,6.82-8,6.82v2C120,279,144,299.39,144,324.6c0,24.72-23.09,44.79-51.9,45.57,3.6.67,6.31,3.39,6.31,6.66,0,3.77-3.59,6.82-8,6.82v7.69c4.43,0,8,3.05,8,6.82s-3.59,6.82-8,6.82v7.69c4.43,0,8,3.05,8,6.82s-3.59,6.82-8,6.82V434c4.43,0,8,3.05,8,6.82s-3.59,6.82-8,6.82v7.69c4.43,0,8,3.05,8,6.82s-3.59,6.82-8,6.82v7.69c4.43,0,8,3.06,8,6.82s-3.59,6.83-8,6.83V503H238.51V144H90.37Z"/><path class="cls-2" d="M879.63,156.69V144H251.34V503H879.63V490.31a6.83,6.83,0,0,1,0-13.65V469a6.82,6.82,0,0,1,0-13.64v-7.69a6.82,6.82,0,0,1,0-13.64v-7.69a6.82,6.82,0,0,1,0-13.64V405a6.82,6.82,0,0,1,0-13.64v-7.69a6.84,6.84,0,0,1-1.42-13.48c-24-.78-43.14-20.85-43.14-45.57,0-25.21,19.95-45.65,44.56-45.65v-2a6.82,6.82,0,0,1,0-13.64v-7.69a6.82,6.82,0,0,1,0-13.64v-7.69a6.82,6.82,0,0,1,0-13.64V213a6.82,6.82,0,0,1,0-13.64v-7.69a6.82,6.82,0,0,1,0-13.64v-7.69a6.83,6.83,0,0,1,0-13.65ZM567,223.39H626.3v14.84H604.06v59.32H589.27V238.23H567Zm-55.28,0h50.83v14.84h-36v14.84H550.9v14.84H526.54v14.8h36v14.84H511.7Zm-162.6,0h14.84v74.16H349.1ZM338.7,365.33h-36v14.84h24.35V395H302.71v14.8h36v14.84H287.86V350.49H338.7Zm2.53-127.1H319v59.32H304.21V238.23H281.92V223.39h59.31Zm40.19,186.42H366.58l-24.26-74.16h16.86L374,400l14.84-49.49h17Zm20.45-126.87a37.88,37.88,0,0,1-9.15-3.88,38.65,38.65,0,0,1-17.69-23,38.47,38.47,0,0,1,0-20.35,38.56,38.56,0,0,1,3.88-9.18,39.15,39.15,0,0,1,13.81-13.81,38.69,38.69,0,0,1,9.15-3.88A37.65,37.65,0,0,1,412,222.35a38.3,38.3,0,0,1,13.29,2.36,36.73,36.73,0,0,1,11.58,6.85l-7.86,12.93a22.13,22.13,0,0,0-7.71-5.41,23.5,23.5,0,0,0-9.3-1.89,22.74,22.74,0,0,0-9.21,1.87,24.25,24.25,0,0,0-7.5,5,23.54,23.54,0,0,0-5.07,7.5,23,23,0,0,0-1.86,9.18,22.62,22.62,0,0,0,1.86,9.13,23.93,23.93,0,0,0,12.57,12.54,22.9,22.9,0,0,0,9.21,1.86,23.5,23.5,0,0,0,9.3-1.89,22.23,22.23,0,0,0,7.71-5.4L436.91,290a38.27,38.27,0,0,1-35,7.83Zm61.83,67.55h-36v14.84h24.35V395H427.71v14.8h36v14.84H412.86V350.49H463.7Zm-3.36-82.62v14.84H445.5V223.39h14.84v37.08L488,223.39h16.86l-23.43,31.28,23.43,42.88H488l-16.29-30Zm73.08,141.94H517.54l-28.6-48.82v48.82H474.1V350.49H490l28.6,48.87V350.49h14.85Zm67.12-59.32H578.31v59.32H563.52V365.33h-22.3V350.49h59.32Zm60.59,45.72a22.26,22.26,0,0,1-4.76,7.06,22.68,22.68,0,0,1-7.08,4.78,21.63,21.63,0,0,1-8.66,1.76h-33V409.81h33a7.35,7.35,0,0,0,6.82-4.5,7.66,7.66,0,0,0,0-5.8,7.34,7.34,0,0,0-6.82-4.5H625.78a21.37,21.37,0,0,1-8.63-1.75,22.62,22.62,0,0,1-11.85-11.87,21.64,21.64,0,0,1-1.76-8.67,21.42,21.42,0,0,1,1.76-8.63,22.67,22.67,0,0,1,11.85-11.85,21.37,21.37,0,0,1,8.63-1.75h34v14.84h-34a7.31,7.31,0,0,0-2.89.57,7.19,7.19,0,0,0-3.93,3.93,7.34,7.34,0,0,0-.57,2.89,7.57,7.57,0,0,0,.57,2.93,7.32,7.32,0,0,0,6.82,4.52h14.85a22,22,0,0,1,8.66,1.73,22.16,22.16,0,0,1,11.84,11.85,22.49,22.49,0,0,1,0,17.3ZM686.89,284a22.42,22.42,0,0,1-4.76,7.06,22.72,22.72,0,0,1-7.09,4.78,21.56,21.56,0,0,1-8.66,1.76H633.44V282.71h32.94a7.4,7.4,0,1,0,0-14.8H651.54a21.42,21.42,0,0,1-8.64-1.75,22.55,22.55,0,0,1-11.84-11.87,21.64,21.64,0,0,1-1.76-8.67,21.42,21.42,0,0,1,1.76-8.63,22.61,22.61,0,0,1,11.84-11.85,21.42,21.42,0,0,1,8.64-1.75h34v14.84h-34a7.37,7.37,0,0,0-5.25,2.14,7.47,7.47,0,0,0-1.58,2.36,7.34,7.34,0,0,0-.57,2.89,7.57,7.57,0,0,0,.57,2.93,7.32,7.32,0,0,0,6.83,4.52h14.84A21.88,21.88,0,0,1,675,254.8a22.13,22.13,0,0,1,11.85,11.85,22.49,22.49,0,0,1,0,17.3ZM810.44,493H710.14v-4.55h100.3Zm0-12.45H710.14V476h100.3Zm0-7.86H710.14v-4.55h100.3Zm0-12.83H710.14v-4.55h100.3Zm0-8.28H710.14V447h100.3Zm0-9.46H710.14v-9.8h100.3Zm0-17.38H710.14v-9.8h100.3Zm0-19.5H710.14v-4.55h100.3Zm0-8.27H710.14v-4.55h100.3Zm0-8.28H710.14v-4.55h100.3Zm0-12.41H710.14V371.7h100.3Zm0-8.28H710.14v-4.55h100.3Zm0-13.19H710.14V345h100.3Zm0-16.6H710.14v-4.55h100.3Zm0-10.29H710.14v-9.8h100.3Zm0-14.07H710.14V304h100.3Zm0-18.46H710.14V290.8h100.3Zm0-8.28H710.14v-4.55h100.3Zm0-8.28H710.14v-4.55h100.3Zm0-12.41H710.14v-4.55h100.3Zm0-8.27H710.14v-4.56h100.3Zm0-12.57H710.14v-9.8h100.3Zm0-17.43H710.14v-4.55h100.3Zm0-12.37H710.14V206h100.3Zm0-17.06H710.14v-9.8h100.3Zm0-17H710.14v-4.55h100.3Zm0-8.27H710.14v-4.56h100.3Zm0-14.49H710.14v-4.55h100.3Z"/><rect class="cls-3" x="485" width="485" height="647"/></svg>